<svg width="550" height="550" viewBox="0 0 550 550" fill="none" xmlns="http://www.w3.org/2000/svg">
<rect width="550" height="550" rx="30" fill="#393939"/>
<g filter="url(#filter0_d_1106_314)">
<path d="M271.577 266.66C260.147 265.76 249.347 258.35 244.277 247.94C241.487 242.27 240.227 237.38 240.227 232.31C240.227 229.82 240.227 229.79 241.067 229.61C244.397 228.89 248.207 227.63 251.237 226.31C251.477 226.19 251.537 227.03 251.417 229.61C251.057 236.78 252.857 242.39 257.117 247.49C261.677 252.92 268.187 255.89 275.567 255.89C287.567 255.89 297.467 247.07 299.327 234.74C299.957 230.63 299.117 225.11 297.317 221.57C295.397 217.79 293.897 216.17 270.977 193.34C251.177 173.63 247.547 169.85 246.137 167.66C241.847 161.06 239.927 153.74 240.317 145.52C240.737 136.94 244.127 129.38 250.337 123.2C255.497 118.07 260.987 115.1 268.277 113.51C269.987 113.15 272.027 113 275.327 113C279.377 113 280.397 113.09 283.247 113.81C290.057 115.46 295.367 118.43 300.107 123.14C306.557 129.56 310.427 138.8 310.427 147.8V149.93L308.867 150.29C306.857 150.77 301.727 152.51 300.467 153.11C299.117 153.8 298.607 153.74 298.877 152.93C299.297 151.55 299.387 146.45 299.057 144.41C298.397 140.6 297.317 137.87 295.037 134.48C291.497 129.17 287.267 126.23 280.907 124.64C268.127 121.43 255.347 129.02 251.897 141.89C251.327 143.93 251.207 145.19 251.207 148.34C251.237 151.79 251.327 152.54 252.077 154.79C253.217 158.27 254.297 160.31 256.367 162.92C257.327 164.15 267.737 174.65 279.497 186.29C291.257 197.93 301.727 208.52 302.807 209.84C304.097 211.43 305.417 213.56 306.677 216.14C309.617 222.17 310.637 227.09 310.337 233.84C309.917 243.02 306.407 250.73 299.687 257.12C293.777 262.79 287.387 265.76 279.137 266.66C276.017 267.02 275.987 267.02 271.577 266.66Z" fill="url(#paint0_linear_1106_314)"/>
<path d="M227.536 224.69C222.496 223.88 216.226 221.24 212.446 218.33C209.836 216.32 205.456 211.64 203.806 209.15C199.276 202.19 197.326 192.92 198.676 184.49C200.506 173.09 207.106 164 217.276 158.84C222.526 156.17 227.866 154.79 232.936 154.79H235.396L235.726 156.08C236.836 160.37 238.426 165.02 239.086 165.83C239.626 166.46 239.146 166.58 237.526 166.22C235.426 165.77 231.166 165.83 228.766 166.31C220.756 168.02 213.826 173.69 211.036 180.83C208.786 186.62 208.756 192.71 210.916 198.68C212.866 204.08 217.696 209.21 223.156 211.79C226.576 213.38 229.426 213.98 233.626 213.98C238.096 214.01 240.916 213.32 244.426 211.46C247.456 209.81 248.476 208.97 254.956 202.46C258.046 199.37 261.196 196.28 261.946 195.59L263.356 194.27L267.106 198.02C269.146 200.06 270.826 201.86 270.826 202.01C270.826 202.46 257.866 215.36 255.436 217.28C250.966 220.82 246.376 222.98 240.466 224.27C237.886 224.84 230.056 225.08 227.536 224.69Z" fill="url(#paint1_linear_1106_314)"/>
<path d="M315.14 224.78C315.02 224.69 315.065 224.304 314.93 223.79C314.63 222.651 313.31 217.55 312.23 215.3C311.78 214.34 311.51 213.53 311.6 213.44C311.72 213.38 312.35 213.44 313.01 213.59C313.64 213.74 315.41 213.89 316.94 213.89C327.98 213.92 337.58 206.69 340.46 196.19C341.39 192.77 341.45 186.56 340.61 183.59C338.9 177.68 335.63 173.15 330.8 169.91C327.11 167.48 322.7 166.01 318.08 165.68C313.43 165.38 308.3 166.82 303.98 169.64C302.99 170.27 298.85 174.11 294.74 178.16L287.33 185.51L283.58 181.79C281.51 179.72 279.83 177.92 279.83 177.74C279.83 177.17 294.62 162.74 296.63 161.33C300.86 158.36 306.35 156.14 311.75 155.21C315.74 154.52 322.22 154.76 326.06 155.78C332.24 157.4 336.68 159.86 341.27 164.24C345.59 168.35 348.26 172.28 350.21 177.47C352.73 184.19 352.97 192.77 350.87 199.94C347.09 212.75 336.47 222.11 323.12 224.39C319.73 224.99 315.53 225.17 315.14 224.78Z" fill="url(#paint2_linear_1106_314)"/>
<circle cx="326.158" cy="240.725" r="5.535" fill="#598791"/>
<circle cx="224.758" cy="240.725" r="5.535" fill="#598791"/>
<circle cx="224.758" cy="139.325" r="5.535" fill="#598791"/>
<circle cx="326.158" cy="139.325" r="5.535" fill="#598791"/>
<path d="M143.83 387.289C124.602 387.289 113 375.688 113 358.822V308.495H122.668V358.178C122.668 370.102 130.403 378.373 143.83 378.373C157.258 378.373 164.885 370.102 164.885 358.178V308.495H174.553V358.822C174.553 375.688 163.059 387.289 143.83 387.289ZM188.142 404.799V330.141H197.488V339.594H197.703C201.194 333.095 207.424 329.066 215.427 329.066C229.714 329.066 239.167 340.453 239.167 358.07V358.124C239.167 375.741 229.607 387.074 215.588 387.074C207.693 387.074 201.194 383.1 197.703 376.654H197.488V404.799H188.142ZM213.601 378.803C223.484 378.803 229.607 370.854 229.607 358.124V358.07C229.607 345.233 223.484 337.338 213.601 337.338C204.148 337.338 197.434 345.556 197.434 358.07V358.124C197.434 370.585 204.202 378.803 213.601 378.803ZM268.44 387.074C255.281 387.074 247.331 380.36 246.204 370.37L246.15 369.887H255.496L255.603 370.424C256.731 376.01 260.867 379.286 268.494 379.286C276.067 379.286 280.579 376.117 280.579 371.068V371.015C280.579 366.986 278.484 364.73 272.146 363.173L263.284 361.024C252.756 358.5 247.654 353.612 247.654 345.556V345.502C247.654 335.888 256.086 329.066 268.171 329.066C280.417 329.066 288.205 336.21 288.904 345.556L288.957 346.254H280.041L279.988 345.878C279.236 340.453 275.1 336.854 268.171 336.854C261.404 336.854 257.214 340.131 257.214 345.072V345.126C257.214 348.939 259.739 351.571 265.915 353.075L274.778 355.224C286.057 357.963 290.139 362.421 290.139 370.37V370.424C290.139 380.199 280.901 387.074 268.44 387.074ZM300.344 386V308.495H309.69V339.057H309.905C312.913 332.772 318.982 329.066 327.307 329.066C339.177 329.066 347.288 338.251 347.288 351.786V386H337.942V353.397C337.942 343.3 332.786 337.338 324.084 337.338C315.437 337.338 309.69 343.891 309.69 353.397V386H300.344ZM382.307 387.074C366.785 387.074 356.418 375.849 356.418 358.07V357.963C356.418 340.185 366.838 329.066 382.253 329.066C397.668 329.066 408.142 340.131 408.142 357.963V358.07C408.142 375.902 397.722 387.074 382.307 387.074ZM382.361 378.803C392.19 378.803 398.581 371.176 398.581 358.07V357.963C398.581 344.857 392.136 337.338 382.253 337.338C372.532 337.338 365.979 344.911 365.979 357.963V358.07C365.979 371.229 372.478 378.803 382.361 378.803ZM435.749 387.074C425.491 387.074 420.442 382.455 420.442 371.767V337.875H412.278V330.141H420.442V315.048H430.11V330.141H440.745V337.875H430.11V371.713C430.11 377.675 432.742 379.34 437.737 379.34C438.865 379.34 439.939 379.179 440.745 379.125V386.698C439.563 386.859 437.576 387.074 435.749 387.074Z" fill="url(#paint3_linear_1106_314)"/>
</g>
<defs>
<filter id="filter0_d_1106_314" x="108" y="112" width="337.744" height="301.799" filterUnits="userSpaceOnUse" color-interpolation-filters="sRGB">
<feFlood flood-opacity="0" result="BackgroundImageFix"/>
<feColorMatrix in="SourceAlpha" type="matrix" values="0 0 0 0 0 0 0 0 0 0 0 0 0 0 0 0 0 0 127 0" result="hardAlpha"/>
<feOffset dy="4"/>
<feGaussianBlur stdDeviation="2.5"/>
<feComposite in2="hardAlpha" operator="out"/>
<feColorMatrix type="matrix" values="0 0 0 0 0 0 0 0 0 0 0 0 0 0 0 0 0 0 0.5 0"/>
<feBlend mode="normal" in2="BackgroundImageFix" result="effect1_dropShadow_1106_314"/>
<feBlend mode="normal" in="SourceGraphic" in2="effect1_dropShadow_1106_314" result="shape"/>
</filter>
<linearGradient id="paint0_linear_1106_314" x1="275.327" y1="113" x2="275.327" y2="266.93" gradientUnits="userSpaceOnUse">
<stop stop-color="#97EBF7"/>
<stop offset="1" stop-color="#598791"/>
</linearGradient>
<linearGradient id="paint1_linear_1106_314" x1="234.541" y1="154.79" x2="234.541" y2="224.881" gradientUnits="userSpaceOnUse">
<stop stop-color="#97EBF7"/>
<stop offset="1" stop-color="#598791"/>
</linearGradient>
<linearGradient id="paint2_linear_1106_314" x1="316.06" y1="154.818" x2="316.06" y2="224.987" gradientUnits="userSpaceOnUse">
<stop stop-color="#97EBF7"/>
<stop offset="1" stop-color="#598791"/>
</linearGradient>
<linearGradient id="paint3_linear_1106_314" x1="275.1" y1="257" x2="275.1" y2="437" gradientUnits="userSpaceOnUse">
<stop stop-color="#97EBF7"/>
<stop offset="1" stop-color="#598791"/>
</linearGradient>
</defs>
</svg>
