<svg width="13" height="15" viewBox="0 0 13 15" fill="none" xmlns="http://www.w3.org/2000/svg">
<path d="M0.362367 7.34914C0.591647 7.12552 0.901801 7 1.22509 7C1.54838 7 1.85854 7.12552 2.08782 7.34914L6.48098 11.5995L10.813 7.34914C11.0422 7.12552 11.3524 7 11.6757 7C11.999 7 12.3091 7.12552 12.5384 7.34914C12.6531 7.46076 12.7442 7.59355 12.8063 7.73986C12.8684 7.88617 12.9004 8.04311 12.9004 8.20161C12.9004 8.36011 12.8684 8.51704 12.8063 8.66335C12.7442 8.80966 12.6531 8.94246 12.5384 9.05407L7.34983 14.1448C7.23607 14.2574 7.10072 14.3467 6.9516 14.4077C6.80248 14.4686 6.64253 14.5 6.48098 14.5C6.31944 14.5 6.15949 14.4686 6.01037 14.4077C5.86125 14.3467 5.7259 14.2574 5.61214 14.1448L0.362367 9.05407C0.247669 8.94246 0.156632 8.80966 0.0945052 8.66335C0.0323784 8.51704 0.000390112 8.36011 0.000390112 8.20161C0.000390112 8.04311 0.0323784 7.88617 0.0945052 7.73986C0.156632 7.59355 0.247669 7.46076 0.362367 7.34914Z" fill="#9E9E9E"/>
<path d="M0.362367 0.349141C0.591647 0.125518 0.901801 0 1.22509 0C1.54838 0 1.85854 0.125518 2.08782 0.349141L6.48098 4.59946L10.813 0.349141C11.0422 0.125518 11.3524 0 11.6757 0C11.999 0 12.3091 0.125518 12.5384 0.349141C12.6531 0.460758 12.7442 0.593552 12.8063 0.739862C12.8684 0.886173 12.9004 1.04311 12.9004 1.20161C12.9004 1.36011 12.8684 1.51704 12.8063 1.66335C12.7442 1.80966 12.6531 1.94246 12.5384 2.05407L7.34983 7.14485C7.23607 7.25738 7.10072 7.34671 6.9516 7.40766C6.80248 7.46862 6.64253 7.5 6.48098 7.5C6.31944 7.5 6.15949 7.46862 6.01037 7.40766C5.86125 7.34671 5.7259 7.25738 5.61214 7.14485L0.362367 2.05407C0.247669 1.94246 0.156632 1.80966 0.0945052 1.66335C0.0323784 1.51704 0.000390112 1.36011 0.000390112 1.20161C0.000390112 1.04311 0.0323784 0.886173 0.0945052 0.739862C0.156632 0.593552 0.247669 0.460758 0.362367 0.349141Z" fill="#9E9E9E"/>
</svg>
