<svg width="936" height="300" viewBox="0 0 936 300" fill="none" xmlns="http://www.w3.org/2000/svg">
<g filter="url(#filter0_d_1093_14)">
<path d="M127.201 278.1C108.151 276.6 90.1512 264.25 81.7012 246.9C77.0512 237.45 74.9512 229.3 74.9512 220.85C74.9512 216.7 74.9512 216.65 76.3512 216.35C81.9012 215.15 88.2512 213.05 93.3012 210.85C93.7012 210.65 93.8012 212.05 93.6012 216.35C93.0012 228.3 96.0012 237.65 103.101 246.15C110.701 255.2 121.551 260.15 133.851 260.15C153.851 260.15 170.351 245.45 173.451 224.9C174.501 218.05 173.101 208.85 170.101 202.95C166.901 196.65 164.401 193.95 126.201 155.9C93.2012 123.05 87.1512 116.75 84.8012 113.1C77.6512 102.1 74.4512 89.9005 75.1012 76.2005C75.8012 61.9005 81.4512 49.3005 91.8012 39.0005C100.401 30.4505 109.551 25.5005 121.701 22.8505C124.551 22.2505 127.951 22.0005 133.451 22.0005C140.201 22.0005 141.901 22.1505 146.651 23.3505C158.001 26.1005 166.851 31.0505 174.751 38.9005C185.501 49.6005 191.951 65.0005 191.951 80.0005V83.5505L189.351 84.1505C186.001 84.9505 177.451 87.8505 175.351 88.8505C173.101 90.0005 172.251 89.9005 172.701 88.5505C173.401 86.2505 173.551 77.7505 173.001 74.3505C171.901 68.0005 170.101 63.4505 166.301 57.8005C160.401 48.9505 153.351 44.0505 142.751 41.4005C121.451 36.0505 100.151 48.7005 94.4012 70.1505C93.4512 73.5505 93.2512 75.6505 93.2512 80.9005C93.3012 86.6505 93.4512 87.9005 94.7012 91.6505C96.6012 97.4505 98.4012 100.85 101.851 105.2C103.451 107.25 120.801 124.75 140.401 144.15C160.001 163.55 177.451 181.2 179.251 183.4C181.401 186.05 183.601 189.6 185.701 193.9C190.601 203.95 192.301 212.15 191.801 223.4C191.101 238.7 185.251 251.55 174.051 262.2C164.201 271.65 153.551 276.6 139.801 278.1C134.601 278.7 134.551 278.7 127.201 278.1Z" fill="url(#paint0_linear_1093_14)"/>
<path d="M53.801 208.15C45.401 206.8 34.951 202.4 28.651 197.55C24.301 194.2 17.001 186.4 14.251 182.25C6.70097 170.65 3.45097 155.2 5.70097 141.15C8.75097 122.15 19.751 107 36.701 98.4004C45.451 93.9504 54.351 91.6504 62.801 91.6504H66.901L67.451 93.8004C69.301 100.95 71.951 108.7 73.051 110.05C73.951 111.1 73.151 111.3 70.451 110.7C66.951 109.95 59.851 110.05 55.851 110.85C42.501 113.7 30.951 123.15 26.301 135.05C22.551 144.7 22.501 154.85 26.101 164.8C29.351 173.8 37.401 182.35 46.501 186.65C52.201 189.3 56.951 190.3 63.951 190.3C71.401 190.35 76.101 189.2 81.951 186.1C87.001 183.35 88.701 181.95 99.501 171.1C104.651 165.95 109.901 160.8 111.151 159.65L113.501 157.45L119.751 163.7C123.151 167.1 125.951 170.1 125.951 170.35C125.951 171.1 104.351 192.6 100.301 195.8C92.851 201.7 85.201 205.3 75.351 207.45C71.051 208.4 58.001 208.8 53.801 208.15Z" fill="url(#paint1_linear_1093_14)"/>
<path d="M199.801 208.301C199.601 208.151 199.677 207.507 199.451 206.651C198.951 204.752 196.751 196.251 194.951 192.501C194.201 190.901 193.751 189.551 193.901 189.401C194.101 189.301 195.151 189.401 196.251 189.651C197.301 189.901 200.251 190.151 202.801 190.151C221.201 190.201 237.201 178.151 242.001 160.651C243.551 154.951 243.651 144.601 242.251 139.651C239.401 129.801 233.951 122.251 225.901 116.851C219.751 112.801 212.401 110.351 204.701 109.801C196.951 109.301 188.401 111.701 181.201 116.401C179.551 117.451 172.651 123.851 165.801 130.601L153.451 142.851L147.201 136.651C143.751 133.201 140.951 130.201 140.951 129.901C140.951 128.951 165.601 104.901 168.951 102.551C176.001 97.6006 185.151 93.9006 194.151 92.3506C200.801 91.2006 211.601 91.6006 218.001 93.3006C228.301 96.0006 235.701 100.101 243.351 107.401C250.551 114.251 255.001 120.801 258.251 129.451C262.451 140.651 262.851 154.951 259.351 166.901C253.051 188.251 235.351 203.851 213.101 207.651C207.451 208.651 200.451 208.951 199.801 208.301Z" fill="url(#paint2_linear_1093_14)"/>
<circle cx="218.176" cy="234.876" r="9.225" fill="#598791"/>
<circle cx="49.1762" cy="234.876" r="9.225" fill="#598791"/>
<circle cx="49.1762" cy="65.8759" r="9.225" fill="#598791"/>
<circle cx="218.176" cy="65.8759" r="9.225" fill="#598791"/>
<path d="M388.727 223.344C353.766 223.344 332.672 202.25 332.672 171.586V80.082H350.25V170.414C350.25 192.094 364.312 207.133 388.727 207.133C413.141 207.133 427.008 192.094 427.008 170.414V80.082H444.586V171.586C444.586 202.25 423.688 223.344 388.727 223.344ZM469.293 255.18V119.438H486.285V136.625H486.676C493.023 124.809 504.352 117.484 518.902 117.484C544.879 117.484 562.066 138.188 562.066 170.219V170.316C562.066 202.348 544.684 222.953 519.195 222.953C504.84 222.953 493.023 215.727 486.676 204.008H486.285V255.18H469.293ZM515.582 207.914C533.551 207.914 544.684 193.461 544.684 170.316V170.219C544.684 146.879 533.551 132.523 515.582 132.523C498.395 132.523 486.188 147.465 486.188 170.219V170.316C486.188 192.973 498.492 207.914 515.582 207.914ZM615.289 222.953C591.363 222.953 576.91 210.746 574.859 192.582L574.762 191.703H591.754L591.949 192.68C594 202.836 601.52 208.793 615.387 208.793C629.156 208.793 637.359 203.031 637.359 193.852V193.754C637.359 186.43 633.551 182.328 622.027 179.496L605.914 175.59C586.773 171 577.496 162.113 577.496 147.465V147.367C577.496 129.887 592.828 117.484 614.801 117.484C637.066 117.484 651.227 130.473 652.496 147.465L652.594 148.734H636.383L636.285 148.051C634.918 138.188 627.398 131.645 614.801 131.645C602.496 131.645 594.879 137.602 594.879 146.586V146.684C594.879 153.617 599.469 158.402 610.699 161.137L626.812 165.043C647.32 170.023 654.742 178.129 654.742 192.582V192.68C654.742 210.453 637.945 222.953 615.289 222.953ZM673.297 221V80.082H690.289V135.648H690.68C696.148 124.223 707.184 117.484 722.32 117.484C743.902 117.484 758.648 134.184 758.648 158.793V221H741.656V161.723C741.656 143.363 732.281 132.523 716.461 132.523C700.738 132.523 690.289 144.438 690.289 161.723V221H673.297ZM822.32 222.953C794.098 222.953 775.25 202.543 775.25 170.219V170.023C775.25 137.699 794.195 117.484 822.223 117.484C850.25 117.484 869.293 137.602 869.293 170.023V170.219C869.293 202.641 850.348 222.953 822.32 222.953ZM822.418 207.914C840.289 207.914 851.91 194.047 851.91 170.219V170.023C851.91 146.195 840.191 132.523 822.223 132.523C804.547 132.523 792.633 146.293 792.633 170.023V170.219C792.633 194.145 804.449 207.914 822.418 207.914ZM919.488 222.953C900.836 222.953 891.656 214.555 891.656 195.121V133.5H876.812V119.438H891.656V91.9961H909.234V119.438H928.57V133.5H909.234V195.023C909.234 205.863 914.02 208.891 923.102 208.891C925.152 208.891 927.105 208.598 928.57 208.5V222.27C926.422 222.562 922.809 222.953 919.488 222.953Z" fill="url(#paint3_linear_1093_14)"/>
</g>
<defs>
<filter id="filter0_d_1093_14" x="0" y="21.0005" width="933.57" height="266.55" filterUnits="userSpaceOnUse" color-interpolation-filters="sRGB">
<feFlood flood-opacity="0" result="BackgroundImageFix"/>
<feColorMatrix in="SourceAlpha" type="matrix" values="0 0 0 0 0 0 0 0 0 0 0 0 0 0 0 0 0 0 127 0" result="hardAlpha"/>
<feOffset dy="4"/>
<feGaussianBlur stdDeviation="2.5"/>
<feComposite in2="hardAlpha" operator="out"/>
<feColorMatrix type="matrix" values="0 0 0 0 0 0 0 0 0 0 0 0 0 0 0 0 0 0 0.5 0"/>
<feBlend mode="normal" in2="BackgroundImageFix" result="effect1_dropShadow_1093_14"/>
<feBlend mode="normal" in="SourceGraphic" in2="effect1_dropShadow_1093_14" result="shape"/>
</filter>
<linearGradient id="paint0_linear_1093_14" x1="133.451" y1="22.0005" x2="133.451" y2="278.551" gradientUnits="userSpaceOnUse">
<stop stop-color="#97EBF7"/>
<stop offset="1" stop-color="#598791"/>
</linearGradient>
<linearGradient id="paint1_linear_1093_14" x1="65.4755" y1="91.6504" x2="65.4755" y2="208.469" gradientUnits="userSpaceOnUse">
<stop stop-color="#97EBF7"/>
<stop offset="1" stop-color="#598791"/>
</linearGradient>
<linearGradient id="paint2_linear_1093_14" x1="201.334" y1="91.6973" x2="201.334" y2="208.645" gradientUnits="userSpaceOnUse">
<stop stop-color="#97EBF7"/>
<stop offset="1" stop-color="#598791"/>
</linearGradient>
<linearGradient id="paint3_linear_1093_14" x1="627.5" y1="8.9407e-06" x2="627.5" y2="300" gradientUnits="userSpaceOnUse">
<stop stop-color="#97EBF7"/>
<stop offset="1" stop-color="#598791"/>
</linearGradient>
</defs>
</svg>
