<svg width="371" height="325" viewBox="0 0 371 325" fill="none" xmlns="http://www.w3.org/2000/svg">
<g filter="url(#filter0_d_1098_51)">
<path d="M181.577 154.66C170.147 153.76 159.347 146.35 154.277 135.94C151.487 130.27 150.227 125.38 150.227 120.31C150.227 117.82 150.227 117.79 151.067 117.61C154.397 116.89 158.207 115.63 161.237 114.31C161.477 114.19 161.537 115.03 161.417 117.61C161.057 124.78 162.857 130.39 167.117 135.49C171.677 140.92 178.187 143.89 185.567 143.89C197.567 143.89 207.467 135.07 209.327 122.74C209.957 118.63 209.117 113.11 207.317 109.57C205.397 105.79 203.897 104.17 180.977 81.34C161.177 61.63 157.547 57.85 156.137 55.66C151.847 49.06 149.927 41.74 150.317 33.52C150.737 24.94 154.127 17.38 160.337 11.2C165.497 6.07 170.987 3.09999 178.277 1.50999C179.987 1.14999 182.027 1 185.327 1C189.377 1 190.397 1.08999 193.247 1.80999C200.057 3.45999 205.367 6.43 210.107 11.14C216.557 17.56 220.427 26.8 220.427 35.8V37.93L218.867 38.29C216.857 38.77 211.727 40.51 210.467 41.11C209.117 41.8 208.607 41.74 208.877 40.93C209.297 39.55 209.387 34.45 209.057 32.41C208.397 28.6 207.317 25.87 205.037 22.48C201.497 17.17 197.267 14.23 190.907 12.64C178.127 9.43 165.347 17.02 161.897 29.89C161.327 31.93 161.207 33.19 161.207 36.34C161.237 39.79 161.327 40.54 162.077 42.79C163.217 46.27 164.297 48.31 166.367 50.92C167.327 52.15 177.737 62.65 189.497 74.29C201.257 85.93 211.727 96.52 212.807 97.84C214.097 99.43 215.417 101.56 216.677 104.14C219.617 110.17 220.637 115.09 220.337 121.84C219.917 131.02 216.407 138.73 209.687 145.12C203.777 150.79 197.387 153.76 189.137 154.66C186.017 155.02 185.987 155.02 181.577 154.66Z" fill="url(#paint0_linear_1098_51)"/>
<path d="M137.536 112.69C132.496 111.88 126.226 109.24 122.446 106.33C119.836 104.32 115.456 99.64 113.806 97.15C109.276 90.19 107.326 80.92 108.676 72.49C110.506 61.09 117.106 52 127.276 46.84C132.526 44.17 137.866 42.79 142.936 42.79H145.396L145.726 44.08C146.836 48.37 148.426 53.02 149.086 53.83C149.626 54.46 149.146 54.58 147.526 54.22C145.426 53.77 141.166 53.83 138.766 54.31C130.756 56.02 123.826 61.69 121.036 68.83C118.786 74.62 118.756 80.71 120.916 86.68C122.866 92.08 127.696 97.21 133.156 99.79C136.576 101.38 139.426 101.98 143.626 101.98C148.096 102.01 150.916 101.32 154.426 99.46C157.456 97.81 158.476 96.97 164.956 90.46C168.046 87.37 171.196 84.28 171.946 83.59L173.356 82.27L177.106 86.02C179.146 88.06 180.826 89.86 180.826 90.01C180.826 90.46 167.866 103.36 165.436 105.28C160.966 108.82 156.376 110.98 150.466 112.27C147.886 112.84 140.056 113.08 137.536 112.69Z" fill="url(#paint1_linear_1098_51)"/>
<path d="M225.14 112.78C225.02 112.69 225.065 112.304 224.93 111.79C224.63 110.651 223.31 105.55 222.23 103.3C221.78 102.34 221.51 101.53 221.6 101.44C221.72 101.38 222.35 101.44 223.01 101.59C223.64 101.74 225.41 101.89 226.94 101.89C237.98 101.92 247.58 94.69 250.46 84.19C251.39 80.77 251.45 74.56 250.61 71.59C248.9 65.68 245.63 61.15 240.8 57.91C237.11 55.48 232.7 54.01 228.08 53.68C223.43 53.38 218.3 54.82 213.98 57.64C212.99 58.27 208.85 62.11 204.74 66.16L197.33 73.51L193.58 69.79C191.51 67.72 189.83 65.92 189.83 65.74C189.83 65.17 204.62 50.74 206.63 49.33C210.86 46.36 216.35 44.14 221.75 43.21C225.74 42.52 232.22 42.76 236.06 43.78C242.24 45.4 246.68 47.86 251.27 52.24C255.59 56.35 258.26 60.28 260.21 65.47C262.73 72.19 262.97 80.77 260.87 87.94C257.09 100.75 246.47 110.11 233.12 112.39C229.73 112.99 225.53 113.17 225.14 112.78Z" fill="url(#paint2_linear_1098_51)"/>
<circle cx="236.158" cy="128.725" r="5.535" fill="#598791"/>
<circle cx="134.758" cy="128.725" r="5.535" fill="#598791"/>
<circle cx="134.758" cy="27.3252" r="5.535" fill="#598791"/>
<circle cx="236.158" cy="27.3252" r="5.535" fill="#598791"/>
<path d="M53.8305 275.289C34.602 275.289 23.0004 263.688 23.0004 246.822V196.495H32.6684V246.178C32.6684 258.102 40.4027 266.373 53.8305 266.373C67.2582 266.373 74.8852 258.102 74.8852 246.178V196.495H84.5531V246.822C84.5531 263.688 73.059 275.289 53.8305 275.289ZM98.142 292.799V218.141H107.488V227.594H107.703C111.194 221.095 117.424 217.066 125.427 217.066C139.714 217.066 149.167 228.453 149.167 246.07V246.124C149.167 263.741 139.607 275.074 125.588 275.074C117.693 275.074 111.194 271.1 107.703 264.654H107.488V292.799H98.142ZM123.601 266.803C133.484 266.803 139.607 258.854 139.607 246.124V246.07C139.607 233.233 133.484 225.338 123.601 225.338C114.148 225.338 107.434 233.556 107.434 246.07V246.124C107.434 258.585 114.202 266.803 123.601 266.803ZM178.44 275.074C165.281 275.074 157.331 268.36 156.204 258.37L156.15 257.887H165.496L165.603 258.424C166.731 264.01 170.867 267.286 178.494 267.286C186.067 267.286 190.579 264.117 190.579 259.068V259.015C190.579 254.986 188.484 252.73 182.146 251.173L173.284 249.024C162.756 246.5 157.654 241.612 157.654 233.556V233.502C157.654 223.888 166.086 217.066 178.171 217.066C190.417 217.066 198.205 224.21 198.904 233.556L198.957 234.254H190.041L189.988 233.878C189.236 228.453 185.1 224.854 178.171 224.854C171.404 224.854 167.214 228.131 167.214 233.072V233.126C167.214 236.939 169.739 239.571 175.915 241.075L184.778 243.224C196.057 245.963 200.139 250.421 200.139 258.37V258.424C200.139 268.199 190.901 275.074 178.44 275.074ZM210.344 274V196.495H219.69V227.057H219.905C222.913 220.772 228.982 217.066 237.307 217.066C249.177 217.066 257.288 226.251 257.288 239.786V274H247.942V241.397C247.942 231.3 242.786 225.338 234.084 225.338C225.437 225.338 219.69 231.891 219.69 241.397V274H210.344ZM292.307 275.074C276.785 275.074 266.418 263.849 266.418 246.07V245.963C266.418 228.185 276.838 217.066 292.253 217.066C307.668 217.066 318.142 228.131 318.142 245.963V246.07C318.142 263.902 307.722 275.074 292.307 275.074ZM292.361 266.803C302.19 266.803 308.581 259.176 308.581 246.07V245.963C308.581 232.857 302.136 225.338 292.253 225.338C282.532 225.338 275.979 232.911 275.979 245.963V246.07C275.979 259.229 282.478 266.803 292.361 266.803ZM345.749 275.074C335.491 275.074 330.442 270.455 330.442 259.767V225.875H322.278V218.141H330.442V203.048H340.11V218.141H350.745V225.875H340.11V259.713C340.11 265.675 342.742 267.34 347.737 267.34C348.865 267.34 349.939 267.179 350.745 267.125V274.698C349.563 274.859 347.576 275.074 345.749 275.074Z" fill="url(#paint3_linear_1098_51)"/>
</g>
<defs>
<filter id="filter0_d_1098_51" x="18" y="0" width="337.744" height="301.799" filterUnits="userSpaceOnUse" color-interpolation-filters="sRGB">
<feFlood flood-opacity="0" result="BackgroundImageFix"/>
<feColorMatrix in="SourceAlpha" type="matrix" values="0 0 0 0 0 0 0 0 0 0 0 0 0 0 0 0 0 0 127 0" result="hardAlpha"/>
<feOffset dy="4"/>
<feGaussianBlur stdDeviation="2.5"/>
<feComposite in2="hardAlpha" operator="out"/>
<feColorMatrix type="matrix" values="0 0 0 0 0 0 0 0 0 0 0 0 0 0 0 0 0 0 0.5 0"/>
<feBlend mode="normal" in2="BackgroundImageFix" result="effect1_dropShadow_1098_51"/>
<feBlend mode="normal" in="SourceGraphic" in2="effect1_dropShadow_1098_51" result="shape"/>
</filter>
<linearGradient id="paint0_linear_1098_51" x1="185.327" y1="1" x2="185.327" y2="154.93" gradientUnits="userSpaceOnUse">
<stop stop-color="#97EBF7"/>
<stop offset="1" stop-color="#598791"/>
</linearGradient>
<linearGradient id="paint1_linear_1098_51" x1="144.541" y1="42.79" x2="144.541" y2="112.881" gradientUnits="userSpaceOnUse">
<stop stop-color="#97EBF7"/>
<stop offset="1" stop-color="#598791"/>
</linearGradient>
<linearGradient id="paint2_linear_1098_51" x1="226.06" y1="42.818" x2="226.06" y2="112.987" gradientUnits="userSpaceOnUse">
<stop stop-color="#97EBF7"/>
<stop offset="1" stop-color="#598791"/>
</linearGradient>
<linearGradient id="paint3_linear_1098_51" x1="185.1" y1="145" x2="185.1" y2="325" gradientUnits="userSpaceOnUse">
<stop stop-color="#97EBF7"/>
<stop offset="1" stop-color="#598791"/>
</linearGradient>
</defs>
</svg>
